<?xml version="1.0" encoding="utf-8" standalone="no"?>
<!DOCTYPE svg PUBLIC "-//W3C//DTD SVG 1.1//EN"
  "http://www.w3.org/Graphics/SVG/1.1/DTD/svg11.dtd">
<svg xmlns:xlink="http://www.w3.org/1999/xlink" width="240.944882pt" height="240.944882pt" viewBox="0 0 240.944882 240.944882" xmlns="http://www.w3.org/2000/svg" version="1.1">
 <metadata>
  <rdf:RDF xmlns:dc="http://purl.org/dc/elements/1.1/" xmlns:cc="http://creativecommons.org/ns#" xmlns:rdf="http://www.w3.org/1999/02/22-rdf-syntax-ns#">
   <cc:Work>
    <dc:type rdf:resource="http://purl.org/dc/dcmitype/StillImage"/>
    <dc:date>2022-11-14T19:06:32.503483</dc:date>
    <dc:format>image/svg+xml</dc:format>
    <dc:creator>
     <cc:Agent>
      <dc:title>Matplotlib v3.5.3, https://matplotlib.org/</dc:title>
     </cc:Agent>
    </dc:creator>
   </cc:Work>
  </rdf:RDF>
 </metadata>
 <defs>
  <style type="text/css">*{stroke-linejoin: round; stroke-linecap: butt}</style>
 </defs>
 <g id="figure_1">
  <g id="patch_1">
   <path d="M 0 240.944882 
L 240.944882 240.944882 
L 240.944882 0 
L 0 0 
z
" style="fill: #ffffff"/>
  </g>
  <g id="axes_1">
   <g id="patch_2">
    <path d="M 36.850394 212.598425 
L 235.275591 212.598425 
L 235.275591 5.669291 
L 36.850394 5.669291 
z
" style="fill: #ffffff"/>
   </g>
   <g id="matplotlib.axis_1">
    <g id="xtick_1">
     <g id="line2d_1">
      <path d="M 41.200555 212.598425 
L 41.200555 5.669291 
" clip-path="url(#pee50798c72)" style="fill: none; stroke-dasharray: 0.3,0.495; stroke-dashoffset: 0; stroke: #b0b0b0; stroke-width: 0.3"/>
     </g>
     <g id="line2d_2">
      <defs>
       <path id="m4207e65bdf" d="M 0 0 
L 0 3.5 
" style="stroke: #000000; stroke-width: 0.8"/>
      </defs>
      <g>
       <use xlink:href="#m4207e65bdf" x="41.200555" y="212.598425" style="stroke: #000000; stroke-width: 0.8"/>
      </g>
     </g>
     <g id="text_1">
      <!-- $\mathdefault{10^{0}}$ -->
      <g transform="translate(36.490555 225.785925)scale(0.06 -0.06)">
       <defs>
        <path id="ArialMT-31" d="M 2384 0 
L 1822 0 
L 1822 3584 
Q 1619 3391 1289 3197 
Q 959 3003 697 2906 
L 697 3450 
Q 1169 3672 1522 3987 
Q 1875 4303 2022 4600 
L 2384 4600 
L 2384 0 
z
" transform="scale(0.015625)"/>
        <path id="ArialMT-30" d="M 266 2259 
Q 266 3072 433 3567 
Q 600 4063 929 4331 
Q 1259 4600 1759 4600 
Q 2128 4600 2406 4451 
Q 2684 4303 2865 4023 
Q 3047 3744 3150 3342 
Q 3253 2941 3253 2259 
Q 3253 1453 3087 958 
Q 2922 463 2592 192 
Q 2263 -78 1759 -78 
Q 1097 -78 719 397 
Q 266 969 266 2259 
z
M 844 2259 
Q 844 1131 1108 757 
Q 1372 384 1759 384 
Q 2147 384 2411 759 
Q 2675 1134 2675 2259 
Q 2675 3391 2411 3762 
Q 2147 4134 1753 4134 
Q 1366 4134 1134 3806 
Q 844 3388 844 2259 
z
" transform="scale(0.015625)"/>
       </defs>
       <use xlink:href="#ArialMT-31" transform="translate(0 0.99375)"/>
       <use xlink:href="#ArialMT-30" transform="translate(55.615234 0.99375)"/>
       <use xlink:href="#ArialMT-30" transform="translate(112.972813 70.6875)scale(0.7)"/>
      </g>
     </g>
    </g>
    <g id="xtick_2">
     <g id="line2d_3">
      <path d="M 136.270473 212.598425 
L 136.270473 5.669291 
" clip-path="url(#pee50798c72)" style="fill: none; stroke-dasharray: 0.3,0.495; stroke-dashoffset: 0; stroke: #b0b0b0; stroke-width: 0.3"/>
     </g>
     <g id="line2d_4">
      <g>
       <use xlink:href="#m4207e65bdf" x="136.270473" y="212.598425" style="stroke: #000000; stroke-width: 0.8"/>
      </g>
     </g>
     <g id="text_2">
      <!-- $\mathdefault{10^{1}}$ -->
      <g transform="translate(131.560473 225.785925)scale(0.06 -0.06)">
       <use xlink:href="#ArialMT-31" transform="translate(0 0.99375)"/>
       <use xlink:href="#ArialMT-30" transform="translate(55.615234 0.99375)"/>
       <use xlink:href="#ArialMT-31" transform="translate(112.972813 70.6875)scale(0.7)"/>
      </g>
     </g>
    </g>
    <g id="xtick_3">
     <g id="line2d_5">
      <path d="M 231.340391 212.598425 
L 231.340391 5.669291 
" clip-path="url(#pee50798c72)" style="fill: none; stroke-dasharray: 0.3,0.495; stroke-dashoffset: 0; stroke: #b0b0b0; stroke-width: 0.3"/>
     </g>
     <g id="line2d_6">
      <g>
       <use xlink:href="#m4207e65bdf" x="231.340391" y="212.598425" style="stroke: #000000; stroke-width: 0.8"/>
      </g>
     </g>
     <g id="text_3">
      <!-- $\mathdefault{10^{2}}$ -->
      <g transform="translate(226.630391 225.785925)scale(0.06 -0.06)">
       <defs>
        <path id="ArialMT-32" d="M 3222 541 
L 3222 0 
L 194 0 
Q 188 203 259 391 
Q 375 700 629 1000 
Q 884 1300 1366 1694 
Q 2113 2306 2375 2664 
Q 2638 3022 2638 3341 
Q 2638 3675 2398 3904 
Q 2159 4134 1775 4134 
Q 1369 4134 1125 3890 
Q 881 3647 878 3216 
L 300 3275 
Q 359 3922 746 4261 
Q 1134 4600 1788 4600 
Q 2447 4600 2831 4234 
Q 3216 3869 3216 3328 
Q 3216 3053 3103 2787 
Q 2991 2522 2730 2228 
Q 2469 1934 1863 1422 
Q 1356 997 1212 845 
Q 1069 694 975 541 
L 3222 541 
z
" transform="scale(0.015625)"/>
       </defs>
       <use xlink:href="#ArialMT-31" transform="translate(0 0.99375)"/>
       <use xlink:href="#ArialMT-30" transform="translate(55.615234 0.99375)"/>
       <use xlink:href="#ArialMT-32" transform="translate(112.972813 70.6875)scale(0.7)"/>
      </g>
     </g>
    </g>
    <g id="xtick_4">
     <g id="line2d_7">
      <path d="M 36.850394 212.598425 
L 36.850394 5.669291 
" clip-path="url(#pee50798c72)" style="fill: none; stroke-dasharray: 0.3,0.495; stroke-dashoffset: 0; stroke: #b0b0b0; stroke-width: 0.3"/>
     </g>
     <g id="line2d_8">
      <defs>
       <path id="m71c86221ae" d="M 0 0 
L 0 2 
" style="stroke: #000000; stroke-width: 0.6"/>
      </defs>
      <g>
       <use xlink:href="#m71c86221ae" x="36.850394" y="212.598425" style="stroke: #000000; stroke-width: 0.6"/>
      </g>
     </g>
    </g>
    <g id="xtick_5">
     <g id="line2d_9">
      <path d="M 69.819452 212.598425 
L 69.819452 5.669291 
" clip-path="url(#pee50798c72)" style="fill: none; stroke-dasharray: 0.3,0.495; stroke-dashoffset: 0; stroke: #b0b0b0; stroke-width: 0.3"/>
     </g>
     <g id="line2d_10">
      <g>
       <use xlink:href="#m71c86221ae" x="69.819452" y="212.598425" style="stroke: #000000; stroke-width: 0.6"/>
      </g>
     </g>
    </g>
    <g id="xtick_6">
     <g id="line2d_11">
      <path d="M 86.560433 212.598425 
L 86.560433 5.669291 
" clip-path="url(#pee50798c72)" style="fill: none; stroke-dasharray: 0.3,0.495; stroke-dashoffset: 0; stroke: #b0b0b0; stroke-width: 0.3"/>
     </g>
     <g id="line2d_12">
      <g>
       <use xlink:href="#m71c86221ae" x="86.560433" y="212.598425" style="stroke: #000000; stroke-width: 0.6"/>
      </g>
     </g>
    </g>
    <g id="xtick_7">
     <g id="line2d_13">
      <path d="M 98.438349 212.598425 
L 98.438349 5.669291 
" clip-path="url(#pee50798c72)" style="fill: none; stroke-dasharray: 0.3,0.495; stroke-dashoffset: 0; stroke: #b0b0b0; stroke-width: 0.3"/>
     </g>
     <g id="line2d_14">
      <g>
       <use xlink:href="#m71c86221ae" x="98.438349" y="212.598425" style="stroke: #000000; stroke-width: 0.6"/>
      </g>
     </g>
    </g>
    <g id="xtick_8">
     <g id="line2d_15">
      <path d="M 107.651576 212.598425 
L 107.651576 5.669291 
" clip-path="url(#pee50798c72)" style="fill: none; stroke-dasharray: 0.3,0.495; stroke-dashoffset: 0; stroke: #b0b0b0; stroke-width: 0.3"/>
     </g>
     <g id="line2d_16">
      <g>
       <use xlink:href="#m71c86221ae" x="107.651576" y="212.598425" style="stroke: #000000; stroke-width: 0.6"/>
      </g>
     </g>
    </g>
    <g id="xtick_9">
     <g id="line2d_17">
      <path d="M 115.17933 212.598425 
L 115.17933 5.669291 
" clip-path="url(#pee50798c72)" style="fill: none; stroke-dasharray: 0.3,0.495; stroke-dashoffset: 0; stroke: #b0b0b0; stroke-width: 0.3"/>
     </g>
     <g id="line2d_18">
      <g>
       <use xlink:href="#m71c86221ae" x="115.17933" y="212.598425" style="stroke: #000000; stroke-width: 0.6"/>
      </g>
     </g>
    </g>
    <g id="xtick_10">
     <g id="line2d_19">
      <path d="M 121.543956 212.598425 
L 121.543956 5.669291 
" clip-path="url(#pee50798c72)" style="fill: none; stroke-dasharray: 0.3,0.495; stroke-dashoffset: 0; stroke: #b0b0b0; stroke-width: 0.3"/>
     </g>
     <g id="line2d_20">
      <g>
       <use xlink:href="#m71c86221ae" x="121.543956" y="212.598425" style="stroke: #000000; stroke-width: 0.6"/>
      </g>
     </g>
    </g>
    <g id="xtick_11">
     <g id="line2d_21">
      <path d="M 127.057246 212.598425 
L 127.057246 5.669291 
" clip-path="url(#pee50798c72)" style="fill: none; stroke-dasharray: 0.3,0.495; stroke-dashoffset: 0; stroke: #b0b0b0; stroke-width: 0.3"/>
     </g>
     <g id="line2d_22">
      <g>
       <use xlink:href="#m71c86221ae" x="127.057246" y="212.598425" style="stroke: #000000; stroke-width: 0.6"/>
      </g>
     </g>
    </g>
    <g id="xtick_12">
     <g id="line2d_23">
      <path d="M 131.920312 212.598425 
L 131.920312 5.669291 
" clip-path="url(#pee50798c72)" style="fill: none; stroke-dasharray: 0.3,0.495; stroke-dashoffset: 0; stroke: #b0b0b0; stroke-width: 0.3"/>
     </g>
     <g id="line2d_24">
      <g>
       <use xlink:href="#m71c86221ae" x="131.920312" y="212.598425" style="stroke: #000000; stroke-width: 0.6"/>
      </g>
     </g>
    </g>
    <g id="xtick_13">
     <g id="line2d_25">
      <path d="M 164.88937 212.598425 
L 164.88937 5.669291 
" clip-path="url(#pee50798c72)" style="fill: none; stroke-dasharray: 0.3,0.495; stroke-dashoffset: 0; stroke: #b0b0b0; stroke-width: 0.3"/>
     </g>
     <g id="line2d_26">
      <g>
       <use xlink:href="#m71c86221ae" x="164.88937" y="212.598425" style="stroke: #000000; stroke-width: 0.6"/>
      </g>
     </g>
    </g>
    <g id="xtick_14">
     <g id="line2d_27">
      <path d="M 181.630352 212.598425 
L 181.630352 5.669291 
" clip-path="url(#pee50798c72)" style="fill: none; stroke-dasharray: 0.3,0.495; stroke-dashoffset: 0; stroke: #b0b0b0; stroke-width: 0.3"/>
     </g>
     <g id="line2d_28">
      <g>
       <use xlink:href="#m71c86221ae" x="181.630352" y="212.598425" style="stroke: #000000; stroke-width: 0.6"/>
      </g>
     </g>
    </g>
    <g id="xtick_15">
     <g id="line2d_29">
      <path d="M 193.508267 212.598425 
L 193.508267 5.669291 
" clip-path="url(#pee50798c72)" style="fill: none; stroke-dasharray: 0.3,0.495; stroke-dashoffset: 0; stroke: #b0b0b0; stroke-width: 0.3"/>
     </g>
     <g id="line2d_30">
      <g>
       <use xlink:href="#m71c86221ae" x="193.508267" y="212.598425" style="stroke: #000000; stroke-width: 0.6"/>
      </g>
     </g>
    </g>
    <g id="xtick_16">
     <g id="line2d_31">
      <path d="M 202.721494 212.598425 
L 202.721494 5.669291 
" clip-path="url(#pee50798c72)" style="fill: none; stroke-dasharray: 0.3,0.495; stroke-dashoffset: 0; stroke: #b0b0b0; stroke-width: 0.3"/>
     </g>
     <g id="line2d_32">
      <g>
       <use xlink:href="#m71c86221ae" x="202.721494" y="212.598425" style="stroke: #000000; stroke-width: 0.6"/>
      </g>
     </g>
    </g>
    <g id="xtick_17">
     <g id="line2d_33">
      <path d="M 210.249249 212.598425 
L 210.249249 5.669291 
" clip-path="url(#pee50798c72)" style="fill: none; stroke-dasharray: 0.3,0.495; stroke-dashoffset: 0; stroke: #b0b0b0; stroke-width: 0.3"/>
     </g>
     <g id="line2d_34">
      <g>
       <use xlink:href="#m71c86221ae" x="210.249249" y="212.598425" style="stroke: #000000; stroke-width: 0.6"/>
      </g>
     </g>
    </g>
    <g id="xtick_18">
     <g id="line2d_35">
      <path d="M 216.613875 212.598425 
L 216.613875 5.669291 
" clip-path="url(#pee50798c72)" style="fill: none; stroke-dasharray: 0.3,0.495; stroke-dashoffset: 0; stroke: #b0b0b0; stroke-width: 0.3"/>
     </g>
     <g id="line2d_36">
      <g>
       <use xlink:href="#m71c86221ae" x="216.613875" y="212.598425" style="stroke: #000000; stroke-width: 0.6"/>
      </g>
     </g>
    </g>
    <g id="xtick_19">
     <g id="line2d_37">
      <path d="M 222.127164 212.598425 
L 222.127164 5.669291 
" clip-path="url(#pee50798c72)" style="fill: none; stroke-dasharray: 0.3,0.495; stroke-dashoffset: 0; stroke: #b0b0b0; stroke-width: 0.3"/>
     </g>
     <g id="line2d_38">
      <g>
       <use xlink:href="#m71c86221ae" x="222.127164" y="212.598425" style="stroke: #000000; stroke-width: 0.6"/>
      </g>
     </g>
    </g>
    <g id="xtick_20">
     <g id="line2d_39">
      <path d="M 226.99023 212.598425 
L 226.99023 5.669291 
" clip-path="url(#pee50798c72)" style="fill: none; stroke-dasharray: 0.3,0.495; stroke-dashoffset: 0; stroke: #b0b0b0; stroke-width: 0.3"/>
     </g>
     <g id="line2d_40">
      <g>
       <use xlink:href="#m71c86221ae" x="226.99023" y="212.598425" style="stroke: #000000; stroke-width: 0.6"/>
      </g>
     </g>
    </g>
    <g id="text_4">
     <!-- Cycle number (-) -->
     <g transform="translate(110.004398 236.074206)scale(0.07 -0.07)">
      <defs>
       <path id="ArialMT-43" d="M 3763 1606 
L 4369 1453 
Q 4178 706 3683 314 
Q 3188 -78 2472 -78 
Q 1731 -78 1267 223 
Q 803 525 561 1097 
Q 319 1669 319 2325 
Q 319 3041 592 3573 
Q 866 4106 1370 4382 
Q 1875 4659 2481 4659 
Q 3169 4659 3637 4309 
Q 4106 3959 4291 3325 
L 3694 3184 
Q 3534 3684 3231 3912 
Q 2928 4141 2469 4141 
Q 1941 4141 1586 3887 
Q 1231 3634 1087 3207 
Q 944 2781 944 2328 
Q 944 1744 1114 1308 
Q 1284 872 1643 656 
Q 2003 441 2422 441 
Q 2931 441 3284 734 
Q 3638 1028 3763 1606 
z
" transform="scale(0.015625)"/>
       <path id="ArialMT-79" d="M 397 -1278 
L 334 -750 
Q 519 -800 656 -800 
Q 844 -800 956 -737 
Q 1069 -675 1141 -563 
Q 1194 -478 1313 -144 
Q 1328 -97 1363 -6 
L 103 3319 
L 709 3319 
L 1400 1397 
Q 1534 1031 1641 628 
Q 1738 1016 1872 1384 
L 2581 3319 
L 3144 3319 
L 1881 -56 
Q 1678 -603 1566 -809 
Q 1416 -1088 1222 -1217 
Q 1028 -1347 759 -1347 
Q 597 -1347 397 -1278 
z
" transform="scale(0.015625)"/>
       <path id="ArialMT-63" d="M 2588 1216 
L 3141 1144 
Q 3050 572 2676 248 
Q 2303 -75 1759 -75 
Q 1078 -75 664 370 
Q 250 816 250 1647 
Q 250 2184 428 2587 
Q 606 2991 970 3192 
Q 1334 3394 1763 3394 
Q 2303 3394 2647 3120 
Q 2991 2847 3088 2344 
L 2541 2259 
Q 2463 2594 2264 2762 
Q 2066 2931 1784 2931 
Q 1359 2931 1093 2626 
Q 828 2322 828 1663 
Q 828 994 1084 691 
Q 1341 388 1753 388 
Q 2084 388 2306 591 
Q 2528 794 2588 1216 
z
" transform="scale(0.015625)"/>
       <path id="ArialMT-6c" d="M 409 0 
L 409 4581 
L 972 4581 
L 972 0 
L 409 0 
z
" transform="scale(0.015625)"/>
       <path id="ArialMT-65" d="M 2694 1069 
L 3275 997 
Q 3138 488 2766 206 
Q 2394 -75 1816 -75 
Q 1088 -75 661 373 
Q 234 822 234 1631 
Q 234 2469 665 2931 
Q 1097 3394 1784 3394 
Q 2450 3394 2872 2941 
Q 3294 2488 3294 1666 
Q 3294 1616 3291 1516 
L 816 1516 
Q 847 969 1125 678 
Q 1403 388 1819 388 
Q 2128 388 2347 550 
Q 2566 713 2694 1069 
z
M 847 1978 
L 2700 1978 
Q 2663 2397 2488 2606 
Q 2219 2931 1791 2931 
Q 1403 2931 1139 2672 
Q 875 2413 847 1978 
z
" transform="scale(0.015625)"/>
       <path id="ArialMT-20" transform="scale(0.015625)"/>
       <path id="ArialMT-6e" d="M 422 0 
L 422 3319 
L 928 3319 
L 928 2847 
Q 1294 3394 1984 3394 
Q 2284 3394 2536 3286 
Q 2788 3178 2913 3003 
Q 3038 2828 3088 2588 
Q 3119 2431 3119 2041 
L 3119 0 
L 2556 0 
L 2556 2019 
Q 2556 2363 2490 2533 
Q 2425 2703 2258 2804 
Q 2091 2906 1866 2906 
Q 1506 2906 1245 2678 
Q 984 2450 984 1813 
L 984 0 
L 422 0 
z
" transform="scale(0.015625)"/>
       <path id="ArialMT-75" d="M 2597 0 
L 2597 488 
Q 2209 -75 1544 -75 
Q 1250 -75 995 37 
Q 741 150 617 320 
Q 494 491 444 738 
Q 409 903 409 1263 
L 409 3319 
L 972 3319 
L 972 1478 
Q 972 1038 1006 884 
Q 1059 663 1231 536 
Q 1403 409 1656 409 
Q 1909 409 2131 539 
Q 2353 669 2445 892 
Q 2538 1116 2538 1541 
L 2538 3319 
L 3100 3319 
L 3100 0 
L 2597 0 
z
" transform="scale(0.015625)"/>
       <path id="ArialMT-6d" d="M 422 0 
L 422 3319 
L 925 3319 
L 925 2853 
Q 1081 3097 1340 3245 
Q 1600 3394 1931 3394 
Q 2300 3394 2536 3241 
Q 2772 3088 2869 2813 
Q 3263 3394 3894 3394 
Q 4388 3394 4653 3120 
Q 4919 2847 4919 2278 
L 4919 0 
L 4359 0 
L 4359 2091 
Q 4359 2428 4304 2576 
Q 4250 2725 4106 2815 
Q 3963 2906 3769 2906 
Q 3419 2906 3187 2673 
Q 2956 2441 2956 1928 
L 2956 0 
L 2394 0 
L 2394 2156 
Q 2394 2531 2256 2718 
Q 2119 2906 1806 2906 
Q 1569 2906 1367 2781 
Q 1166 2656 1075 2415 
Q 984 2175 984 1722 
L 984 0 
L 422 0 
z
" transform="scale(0.015625)"/>
       <path id="ArialMT-62" d="M 941 0 
L 419 0 
L 419 4581 
L 981 4581 
L 981 2947 
Q 1338 3394 1891 3394 
Q 2197 3394 2470 3270 
Q 2744 3147 2920 2923 
Q 3097 2700 3197 2384 
Q 3297 2069 3297 1709 
Q 3297 856 2875 390 
Q 2453 -75 1863 -75 
Q 1275 -75 941 416 
L 941 0 
z
M 934 1684 
Q 934 1088 1097 822 
Q 1363 388 1816 388 
Q 2184 388 2453 708 
Q 2722 1028 2722 1663 
Q 2722 2313 2464 2622 
Q 2206 2931 1841 2931 
Q 1472 2931 1203 2611 
Q 934 2291 934 1684 
z
" transform="scale(0.015625)"/>
       <path id="ArialMT-72" d="M 416 0 
L 416 3319 
L 922 3319 
L 922 2816 
Q 1116 3169 1280 3281 
Q 1444 3394 1641 3394 
Q 1925 3394 2219 3213 
L 2025 2691 
Q 1819 2813 1613 2813 
Q 1428 2813 1281 2702 
Q 1134 2591 1072 2394 
Q 978 2094 978 1738 
L 978 0 
L 416 0 
z
" transform="scale(0.015625)"/>
       <path id="ArialMT-28" d="M 1497 -1347 
Q 1031 -759 709 28 
Q 388 816 388 1659 
Q 388 2403 628 3084 
Q 909 3875 1497 4659 
L 1900 4659 
Q 1522 4009 1400 3731 
Q 1209 3300 1100 2831 
Q 966 2247 966 1656 
Q 966 153 1900 -1347 
L 1497 -1347 
z
" transform="scale(0.015625)"/>
       <path id="ArialMT-2d" d="M 203 1375 
L 203 1941 
L 1931 1941 
L 1931 1375 
L 203 1375 
z
" transform="scale(0.015625)"/>
       <path id="ArialMT-29" d="M 791 -1347 
L 388 -1347 
Q 1322 153 1322 1656 
Q 1322 2244 1188 2822 
Q 1081 3291 891 3722 
Q 769 4003 388 4659 
L 791 4659 
Q 1378 3875 1659 3084 
Q 1900 2403 1900 1659 
Q 1900 816 1576 28 
Q 1253 -759 791 -1347 
z
" transform="scale(0.015625)"/>
      </defs>
      <use xlink:href="#ArialMT-43"/>
      <use xlink:href="#ArialMT-79" x="72.216797"/>
      <use xlink:href="#ArialMT-63" x="122.216797"/>
      <use xlink:href="#ArialMT-6c" x="172.216797"/>
      <use xlink:href="#ArialMT-65" x="194.433594"/>
      <use xlink:href="#ArialMT-20" x="250.048828"/>
      <use xlink:href="#ArialMT-6e" x="277.832031"/>
      <use xlink:href="#ArialMT-75" x="333.447266"/>
      <use xlink:href="#ArialMT-6d" x="389.0625"/>
      <use xlink:href="#ArialMT-62" x="472.363281"/>
      <use xlink:href="#ArialMT-65" x="527.978516"/>
      <use xlink:href="#ArialMT-72" x="583.59375"/>
      <use xlink:href="#ArialMT-20" x="616.894531"/>
      <use xlink:href="#ArialMT-28" x="644.677734"/>
      <use xlink:href="#ArialMT-2d" x="677.978516"/>
      <use xlink:href="#ArialMT-29" x="711.279297"/>
     </g>
    </g>
   </g>
   <g id="matplotlib.axis_2">
    <g id="ytick_1">
     <g id="line2d_41">
      <path d="M 36.850394 208.061829 
L 235.275591 208.061829 
" clip-path="url(#pee50798c72)" style="fill: none; stroke-dasharray: 0.3,0.495; stroke-dashoffset: 0; stroke: #b0b0b0; stroke-width: 0.3"/>
     </g>
     <g id="line2d_42">
      <defs>
       <path id="m83f3de6db9" d="M 0 0 
L -3.5 0 
" style="stroke: #000000; stroke-width: 0.8"/>
      </defs>
      <g>
       <use xlink:href="#m83f3de6db9" x="36.850394" y="208.061829" style="stroke: #000000; stroke-width: 0.8"/>
      </g>
     </g>
     <g id="text_5">
      <!-- $\mathdefault{10^{0}}$ -->
      <g transform="translate(20.430394 211.155579)scale(0.06 -0.06)">
       <use xlink:href="#ArialMT-31" transform="translate(0 0.99375)"/>
       <use xlink:href="#ArialMT-30" transform="translate(55.615234 0.99375)"/>
       <use xlink:href="#ArialMT-30" transform="translate(112.972813 70.6875)scale(0.7)"/>
      </g>
     </g>
    </g>
    <g id="ytick_2">
     <g id="line2d_43">
      <path d="M 36.850394 108.917485 
L 235.275591 108.917485 
" clip-path="url(#pee50798c72)" style="fill: none; stroke-dasharray: 0.3,0.495; stroke-dashoffset: 0; stroke: #b0b0b0; stroke-width: 0.3"/>
     </g>
     <g id="line2d_44">
      <g>
       <use xlink:href="#m83f3de6db9" x="36.850394" y="108.917485" style="stroke: #000000; stroke-width: 0.8"/>
      </g>
     </g>
     <g id="text_6">
      <!-- $\mathdefault{10^{1}}$ -->
      <g transform="translate(20.430394 112.011235)scale(0.06 -0.06)">
       <use xlink:href="#ArialMT-31" transform="translate(0 0.99375)"/>
       <use xlink:href="#ArialMT-30" transform="translate(55.615234 0.99375)"/>
       <use xlink:href="#ArialMT-31" transform="translate(112.972813 70.6875)scale(0.7)"/>
      </g>
     </g>
    </g>
    <g id="ytick_3">
     <g id="line2d_45">
      <path d="M 36.850394 9.773142 
L 235.275591 9.773142 
" clip-path="url(#pee50798c72)" style="fill: none; stroke-dasharray: 0.3,0.495; stroke-dashoffset: 0; stroke: #b0b0b0; stroke-width: 0.3"/>
     </g>
     <g id="line2d_46">
      <g>
       <use xlink:href="#m83f3de6db9" x="36.850394" y="9.773142" style="stroke: #000000; stroke-width: 0.8"/>
      </g>
     </g>
     <g id="text_7">
      <!-- $\mathdefault{10^{2}}$ -->
      <g transform="translate(20.430394 12.866892)scale(0.06 -0.06)">
       <use xlink:href="#ArialMT-31" transform="translate(0 0.99375)"/>
       <use xlink:href="#ArialMT-30" transform="translate(55.615234 0.99375)"/>
       <use xlink:href="#ArialMT-32" transform="translate(112.972813 70.6875)scale(0.7)"/>
      </g>
     </g>
    </g>
    <g id="ytick_4">
     <g id="line2d_47">
      <path d="M 36.850394 212.598425 
L 235.275591 212.598425 
" clip-path="url(#pee50798c72)" style="fill: none; stroke-dasharray: 0.3,0.495; stroke-dashoffset: 0; stroke: #b0b0b0; stroke-width: 0.3"/>
     </g>
     <g id="line2d_48">
      <defs>
       <path id="mfc1f22762e" d="M 0 0 
L -2 0 
" style="stroke: #000000; stroke-width: 0.6"/>
      </defs>
      <g>
       <use xlink:href="#mfc1f22762e" x="36.850394" y="212.598425" style="stroke: #000000; stroke-width: 0.6"/>
      </g>
     </g>
    </g>
    <g id="ytick_5">
     <g id="line2d_49">
      <path d="M 36.850394 178.216408 
L 235.275591 178.216408 
" clip-path="url(#pee50798c72)" style="fill: none; stroke-dasharray: 0.3,0.495; stroke-dashoffset: 0; stroke: #b0b0b0; stroke-width: 0.3"/>
     </g>
     <g id="line2d_50">
      <g>
       <use xlink:href="#mfc1f22762e" x="36.850394" y="178.216408" style="stroke: #000000; stroke-width: 0.6"/>
      </g>
     </g>
    </g>
    <g id="ytick_6">
     <g id="line2d_51">
      <path d="M 36.850394 160.757955 
L 235.275591 160.757955 
" clip-path="url(#pee50798c72)" style="fill: none; stroke-dasharray: 0.3,0.495; stroke-dashoffset: 0; stroke: #b0b0b0; stroke-width: 0.3"/>
     </g>
     <g id="line2d_52">
      <g>
       <use xlink:href="#mfc1f22762e" x="36.850394" y="160.757955" style="stroke: #000000; stroke-width: 0.6"/>
      </g>
     </g>
    </g>
    <g id="ytick_7">
     <g id="line2d_53">
      <path d="M 36.850394 148.370986 
L 235.275591 148.370986 
" clip-path="url(#pee50798c72)" style="fill: none; stroke-dasharray: 0.3,0.495; stroke-dashoffset: 0; stroke: #b0b0b0; stroke-width: 0.3"/>
     </g>
     <g id="line2d_54">
      <g>
       <use xlink:href="#mfc1f22762e" x="36.850394" y="148.370986" style="stroke: #000000; stroke-width: 0.6"/>
      </g>
     </g>
    </g>
    <g id="ytick_8">
     <g id="line2d_55">
      <path d="M 36.850394 138.762907 
L 235.275591 138.762907 
" clip-path="url(#pee50798c72)" style="fill: none; stroke-dasharray: 0.3,0.495; stroke-dashoffset: 0; stroke: #b0b0b0; stroke-width: 0.3"/>
     </g>
     <g id="line2d_56">
      <g>
       <use xlink:href="#mfc1f22762e" x="36.850394" y="138.762907" style="stroke: #000000; stroke-width: 0.6"/>
      </g>
     </g>
    </g>
    <g id="ytick_9">
     <g id="line2d_57">
      <path d="M 36.850394 130.912534 
L 235.275591 130.912534 
" clip-path="url(#pee50798c72)" style="fill: none; stroke-dasharray: 0.3,0.495; stroke-dashoffset: 0; stroke: #b0b0b0; stroke-width: 0.3"/>
     </g>
     <g id="line2d_58">
      <g>
       <use xlink:href="#mfc1f22762e" x="36.850394" y="130.912534" style="stroke: #000000; stroke-width: 0.6"/>
      </g>
     </g>
    </g>
    <g id="ytick_10">
     <g id="line2d_59">
      <path d="M 36.850394 124.275139 
L 235.275591 124.275139 
" clip-path="url(#pee50798c72)" style="fill: none; stroke-dasharray: 0.3,0.495; stroke-dashoffset: 0; stroke: #b0b0b0; stroke-width: 0.3"/>
     </g>
     <g id="line2d_60">
      <g>
       <use xlink:href="#mfc1f22762e" x="36.850394" y="124.275139" style="stroke: #000000; stroke-width: 0.6"/>
      </g>
     </g>
    </g>
    <g id="ytick_11">
     <g id="line2d_61">
      <path d="M 36.850394 118.525565 
L 235.275591 118.525565 
" clip-path="url(#pee50798c72)" style="fill: none; stroke-dasharray: 0.3,0.495; stroke-dashoffset: 0; stroke: #b0b0b0; stroke-width: 0.3"/>
     </g>
     <g id="line2d_62">
      <g>
       <use xlink:href="#mfc1f22762e" x="36.850394" y="118.525565" style="stroke: #000000; stroke-width: 0.6"/>
      </g>
     </g>
    </g>
    <g id="ytick_12">
     <g id="line2d_63">
      <path d="M 36.850394 113.454082 
L 235.275591 113.454082 
" clip-path="url(#pee50798c72)" style="fill: none; stroke-dasharray: 0.3,0.495; stroke-dashoffset: 0; stroke: #b0b0b0; stroke-width: 0.3"/>
     </g>
     <g id="line2d_64">
      <g>
       <use xlink:href="#mfc1f22762e" x="36.850394" y="113.454082" style="stroke: #000000; stroke-width: 0.6"/>
      </g>
     </g>
    </g>
    <g id="ytick_13">
     <g id="line2d_65">
      <path d="M 36.850394 79.072064 
L 235.275591 79.072064 
" clip-path="url(#pee50798c72)" style="fill: none; stroke-dasharray: 0.3,0.495; stroke-dashoffset: 0; stroke: #b0b0b0; stroke-width: 0.3"/>
     </g>
     <g id="line2d_66">
      <g>
       <use xlink:href="#mfc1f22762e" x="36.850394" y="79.072064" style="stroke: #000000; stroke-width: 0.6"/>
      </g>
     </g>
    </g>
    <g id="ytick_14">
     <g id="line2d_67">
      <path d="M 36.850394 61.613612 
L 235.275591 61.613612 
" clip-path="url(#pee50798c72)" style="fill: none; stroke-dasharray: 0.3,0.495; stroke-dashoffset: 0; stroke: #b0b0b0; stroke-width: 0.3"/>
     </g>
     <g id="line2d_68">
      <g>
       <use xlink:href="#mfc1f22762e" x="36.850394" y="61.613612" style="stroke: #000000; stroke-width: 0.6"/>
      </g>
     </g>
    </g>
    <g id="ytick_15">
     <g id="line2d_69">
      <path d="M 36.850394 49.226643 
L 235.275591 49.226643 
" clip-path="url(#pee50798c72)" style="fill: none; stroke-dasharray: 0.3,0.495; stroke-dashoffset: 0; stroke: #b0b0b0; stroke-width: 0.3"/>
     </g>
     <g id="line2d_70">
      <g>
       <use xlink:href="#mfc1f22762e" x="36.850394" y="49.226643" style="stroke: #000000; stroke-width: 0.6"/>
      </g>
     </g>
    </g>
    <g id="ytick_16">
     <g id="line2d_71">
      <path d="M 36.850394 39.618563 
L 235.275591 39.618563 
" clip-path="url(#pee50798c72)" style="fill: none; stroke-dasharray: 0.3,0.495; stroke-dashoffset: 0; stroke: #b0b0b0; stroke-width: 0.3"/>
     </g>
     <g id="line2d_72">
      <g>
       <use xlink:href="#mfc1f22762e" x="36.850394" y="39.618563" style="stroke: #000000; stroke-width: 0.6"/>
      </g>
     </g>
    </g>
    <g id="ytick_17">
     <g id="line2d_73">
      <path d="M 36.850394 31.768191 
L 235.275591 31.768191 
" clip-path="url(#pee50798c72)" style="fill: none; stroke-dasharray: 0.3,0.495; stroke-dashoffset: 0; stroke: #b0b0b0; stroke-width: 0.3"/>
     </g>
     <g id="line2d_74">
      <g>
       <use xlink:href="#mfc1f22762e" x="36.850394" y="31.768191" style="stroke: #000000; stroke-width: 0.6"/>
      </g>
     </g>
    </g>
    <g id="ytick_18">
     <g id="line2d_75">
      <path d="M 36.850394 25.130795 
L 235.275591 25.130795 
" clip-path="url(#pee50798c72)" style="fill: none; stroke-dasharray: 0.3,0.495; stroke-dashoffset: 0; stroke: #b0b0b0; stroke-width: 0.3"/>
     </g>
     <g id="line2d_76">
      <g>
       <use xlink:href="#mfc1f22762e" x="36.850394" y="25.130795" style="stroke: #000000; stroke-width: 0.6"/>
      </g>
     </g>
    </g>
    <g id="ytick_19">
     <g id="line2d_77">
      <path d="M 36.850394 19.381222 
L 235.275591 19.381222 
" clip-path="url(#pee50798c72)" style="fill: none; stroke-dasharray: 0.3,0.495; stroke-dashoffset: 0; stroke: #b0b0b0; stroke-width: 0.3"/>
     </g>
     <g id="line2d_78">
      <g>
       <use xlink:href="#mfc1f22762e" x="36.850394" y="19.381222" style="stroke: #000000; stroke-width: 0.6"/>
      </g>
     </g>
    </g>
    <g id="ytick_20">
     <g id="line2d_79">
      <path d="M 36.850394 14.309738 
L 235.275591 14.309738 
" clip-path="url(#pee50798c72)" style="fill: none; stroke-dasharray: 0.3,0.495; stroke-dashoffset: 0; stroke: #b0b0b0; stroke-width: 0.3"/>
     </g>
     <g id="line2d_80">
      <g>
       <use xlink:href="#mfc1f22762e" x="36.850394" y="14.309738" style="stroke: #000000; stroke-width: 0.6"/>
      </g>
     </g>
    </g>
    <g id="text_8">
     <!-- GWP100 ($kg_{CO_{2}eq} kg^{-1}$) -->
     <g transform="translate(12.860394 144.833858)rotate(-90)scale(0.07 -0.07)">
      <defs>
       <path id="ArialMT-47" d="M 2638 1797 
L 2638 2334 
L 4578 2338 
L 4578 638 
Q 4131 281 3656 101 
Q 3181 -78 2681 -78 
Q 2006 -78 1454 211 
Q 903 500 622 1047 
Q 341 1594 341 2269 
Q 341 2938 620 3517 
Q 900 4097 1425 4378 
Q 1950 4659 2634 4659 
Q 3131 4659 3532 4498 
Q 3934 4338 4162 4050 
Q 4391 3763 4509 3300 
L 3963 3150 
Q 3859 3500 3706 3700 
Q 3553 3900 3268 4020 
Q 2984 4141 2638 4141 
Q 2222 4141 1919 4014 
Q 1616 3888 1430 3681 
Q 1244 3475 1141 3228 
Q 966 2803 966 2306 
Q 966 1694 1177 1281 
Q 1388 869 1791 669 
Q 2194 469 2647 469 
Q 3041 469 3416 620 
Q 3791 772 3984 944 
L 3984 1797 
L 2638 1797 
z
" transform="scale(0.015625)"/>
       <path id="ArialMT-57" d="M 1294 0 
L 78 4581 
L 700 4581 
L 1397 1578 
Q 1509 1106 1591 641 
Q 1766 1375 1797 1488 
L 2669 4581 
L 3400 4581 
L 4056 2263 
Q 4303 1400 4413 641 
Q 4500 1075 4641 1638 
L 5359 4581 
L 5969 4581 
L 4713 0 
L 4128 0 
L 3163 3491 
Q 3041 3928 3019 4028 
Q 2947 3713 2884 3491 
L 1913 0 
L 1294 0 
z
" transform="scale(0.015625)"/>
       <path id="ArialMT-50" d="M 494 0 
L 494 4581 
L 2222 4581 
Q 2678 4581 2919 4538 
Q 3256 4481 3484 4323 
Q 3713 4166 3852 3881 
Q 3991 3597 3991 3256 
Q 3991 2672 3619 2267 
Q 3247 1863 2275 1863 
L 1100 1863 
L 1100 0 
L 494 0 
z
M 1100 2403 
L 2284 2403 
Q 2872 2403 3119 2622 
Q 3366 2841 3366 3238 
Q 3366 3525 3220 3729 
Q 3075 3934 2838 4000 
Q 2684 4041 2272 4041 
L 1100 4041 
L 1100 2403 
z
" transform="scale(0.015625)"/>
       <path id="ArialMT-6b" d="M 425 0 
L 425 4581 
L 988 4581 
L 988 1969 
L 2319 3319 
L 3047 3319 
L 1778 2088 
L 3175 0 
L 2481 0 
L 1384 1697 
L 988 1316 
L 988 0 
L 425 0 
z
" transform="scale(0.015625)"/>
       <path id="ArialMT-67" d="M 319 -275 
L 866 -356 
Q 900 -609 1056 -725 
Q 1266 -881 1628 -881 
Q 2019 -881 2231 -725 
Q 2444 -569 2519 -288 
Q 2563 -116 2559 434 
Q 2191 0 1641 0 
Q 956 0 581 494 
Q 206 988 206 1678 
Q 206 2153 378 2554 
Q 550 2956 876 3175 
Q 1203 3394 1644 3394 
Q 2231 3394 2613 2919 
L 2613 3319 
L 3131 3319 
L 3131 450 
Q 3131 -325 2973 -648 
Q 2816 -972 2473 -1159 
Q 2131 -1347 1631 -1347 
Q 1038 -1347 672 -1080 
Q 306 -813 319 -275 
z
M 784 1719 
Q 784 1066 1043 766 
Q 1303 466 1694 466 
Q 2081 466 2343 764 
Q 2606 1063 2606 1700 
Q 2606 2309 2336 2618 
Q 2066 2928 1684 2928 
Q 1309 2928 1046 2623 
Q 784 2319 784 1719 
z
" transform="scale(0.015625)"/>
       <path id="ArialMT-4f" d="M 309 2231 
Q 309 3372 921 4017 
Q 1534 4663 2503 4663 
Q 3138 4663 3647 4359 
Q 4156 4056 4423 3514 
Q 4691 2972 4691 2284 
Q 4691 1588 4409 1038 
Q 4128 488 3612 205 
Q 3097 -78 2500 -78 
Q 1853 -78 1343 234 
Q 834 547 571 1087 
Q 309 1628 309 2231 
z
M 934 2222 
Q 934 1394 1379 917 
Q 1825 441 2497 441 
Q 3181 441 3623 922 
Q 4066 1403 4066 2288 
Q 4066 2847 3877 3264 
Q 3688 3681 3323 3911 
Q 2959 4141 2506 4141 
Q 1863 4141 1398 3698 
Q 934 3256 934 2222 
z
" transform="scale(0.015625)"/>
       <path id="ArialMT-71" d="M 2538 -1272 
L 2538 353 
Q 2406 169 2170 47 
Q 1934 -75 1669 -75 
Q 1078 -75 651 397 
Q 225 869 225 1691 
Q 225 2191 398 2587 
Q 572 2984 901 3189 
Q 1231 3394 1625 3394 
Q 2241 3394 2594 2875 
L 2594 3319 
L 3100 3319 
L 3100 -1272 
L 2538 -1272 
z
M 803 1669 
Q 803 1028 1072 708 
Q 1341 388 1716 388 
Q 2075 388 2334 692 
Q 2594 997 2594 1619 
Q 2594 2281 2320 2615 
Q 2047 2950 1678 2950 
Q 1313 2950 1058 2639 
Q 803 2328 803 1669 
z
" transform="scale(0.015625)"/>
       <path id="ArialMT-2212" d="M 3381 1997 
L 356 1997 
L 356 2522 
L 3381 2522 
L 3381 1997 
z
" transform="scale(0.015625)"/>
      </defs>
      <use xlink:href="#ArialMT-47" transform="translate(0 0.99375)"/>
      <use xlink:href="#ArialMT-57" transform="translate(77.783203 0.99375)"/>
      <use xlink:href="#ArialMT-50" transform="translate(172.167969 0.99375)"/>
      <use xlink:href="#ArialMT-31" transform="translate(238.867188 0.99375)"/>
      <use xlink:href="#ArialMT-30" transform="translate(294.482422 0.99375)"/>
      <use xlink:href="#ArialMT-30" transform="translate(350.097656 0.99375)"/>
      <use xlink:href="#ArialMT-20" transform="translate(405.712891 0.99375)"/>
      <use xlink:href="#ArialMT-28" transform="translate(433.496094 0.99375)"/>
      <use xlink:href="#ArialMT-6b" transform="translate(466.796875 0.99375)"/>
      <use xlink:href="#ArialMT-67" transform="translate(516.796875 0.99375)"/>
      <use xlink:href="#ArialMT-43" transform="translate(574.154453 -28.875)scale(0.7)"/>
      <use xlink:href="#ArialMT-4f" transform="translate(624.706211 -28.875)scale(0.7)"/>
      <use xlink:href="#ArialMT-32" transform="translate(680.374094 -49.783125)scale(0.49)"/>
      <use xlink:href="#ArialMT-65" transform="translate(711.110246 -28.875)scale(0.7)"/>
      <use xlink:href="#ArialMT-71" transform="translate(750.04091 -28.875)scale(0.7)"/>
      <use xlink:href="#ArialMT-6b" transform="translate(793.949699 0.99375)"/>
      <use xlink:href="#ArialMT-67" transform="translate(843.949699 0.99375)"/>
      <use xlink:href="#ArialMT-2212" transform="translate(901.307277 70.6875)scale(0.7)"/>
      <use xlink:href="#ArialMT-31" transform="translate(942.186184 70.6875)scale(0.7)"/>
      <use xlink:href="#ArialMT-29" transform="translate(986.094973 0.99375)"/>
     </g>
    </g>
   </g>
   <g id="PathCollection_1">
    <defs>
     <path id="m205648e3fe" d="M 0 1.732051 
C 0.459345 1.732051 0.899939 1.549551 1.224745 1.224745 
C 1.549551 0.899939 1.732051 0.459345 1.732051 0 
C 1.732051 -0.459345 1.549551 -0.899939 1.224745 -1.224745 
C 0.899939 -1.549551 0.459345 -1.732051 0 -1.732051 
C -0.459345 -1.732051 -0.899939 -1.549551 -1.224745 -1.224745 
C -1.549551 -0.899939 -1.732051 -0.459345 -1.732051 0 
C -1.732051 0.459345 -1.549551 0.899939 -1.224745 1.224745 
C -0.899939 1.549551 -0.459345 1.732051 0 1.732051 
z
" style="stroke: #000000; stroke-width: 0.4"/>
    </defs>
    <g clip-path="url(#pee50798c72)">
     <use xlink:href="#m205648e3fe" x="41.200555" y="24.926649" style="fill: #67a9cf; stroke: #000000; stroke-width: 0.4"/>
     <use xlink:href="#m205648e3fe" x="69.819452" y="52.085073" style="fill: #67a9cf; stroke: #000000; stroke-width: 0.4"/>
     <use xlink:href="#m205648e3fe" x="98.438349" y="77.012602" style="fill: #67a9cf; stroke: #000000; stroke-width: 0.4"/>
     <use xlink:href="#m205648e3fe" x="115.17933" y="90.057727" style="fill: #67a9cf; stroke: #000000; stroke-width: 0.4"/>
     <use xlink:href="#m205648e3fe" x="127.057246" y="98.441964" style="fill: #67a9cf; stroke: #000000; stroke-width: 0.4"/>
     <use xlink:href="#m205648e3fe" x="136.270473" y="104.38797" style="fill: #67a9cf; stroke: #000000; stroke-width: 0.4"/>
     <use xlink:href="#m205648e3fe" x="164.88937" y="119.51041" style="fill: #67a9cf; stroke: #000000; stroke-width: 0.4"/>
     <use xlink:href="#m205648e3fe" x="181.630352" y="126.017685" style="fill: #67a9cf; stroke: #000000; stroke-width: 0.4"/>
     <use xlink:href="#m205648e3fe" x="193.508267" y="129.681608" style="fill: #67a9cf; stroke: #000000; stroke-width: 0.4"/>
     <use xlink:href="#m205648e3fe" x="202.721494" y="132.039608" style="fill: #67a9cf; stroke: #000000; stroke-width: 0.4"/>
     <use xlink:href="#m205648e3fe" x="210.249249" y="133.686548" style="fill: #67a9cf; stroke: #000000; stroke-width: 0.4"/>
     <use xlink:href="#m205648e3fe" x="216.613875" y="134.902736" style="fill: #67a9cf; stroke: #000000; stroke-width: 0.4"/>
     <use xlink:href="#m205648e3fe" x="222.127164" y="135.837966" style="fill: #67a9cf; stroke: #000000; stroke-width: 0.4"/>
     <use xlink:href="#m205648e3fe" x="226.99023" y="136.579675" style="fill: #67a9cf; stroke: #000000; stroke-width: 0.4"/>
     <use xlink:href="#m205648e3fe" x="231.340391" y="137.182381" style="fill: #67a9cf; stroke: #000000; stroke-width: 0.4"/>
    </g>
   </g>
   <g id="PathCollection_2">
    <defs>
     <path id="m06bca43c03" d="M 0 1.732051 
C 0.459345 1.732051 0.899939 1.549551 1.224745 1.224745 
C 1.549551 0.899939 1.732051 0.459345 1.732051 0 
C 1.732051 -0.459345 1.549551 -0.899939 1.224745 -1.224745 
C 0.899939 -1.549551 0.459345 -1.732051 0 -1.732051 
C -0.459345 -1.732051 -0.899939 -1.549551 -1.224745 -1.224745 
C -1.549551 -0.899939 -1.732051 -0.459345 -1.732051 0 
C -1.732051 0.459345 -1.549551 0.899939 -1.224745 1.224745 
C -0.899939 1.549551 -0.459345 1.732051 0 1.732051 
z
" style="stroke: #000000; stroke-width: 0.4"/>
    </defs>
    <g clip-path="url(#pee50798c72)">
     <use xlink:href="#m06bca43c03" x="41.200555" y="133.808192" style="fill: #ef8a62; stroke: #000000; stroke-width: 0.4"/>
     <use xlink:href="#m06bca43c03" x="69.819452" y="136.650599" style="fill: #ef8a62; stroke: #000000; stroke-width: 0.4"/>
     <use xlink:href="#m06bca43c03" x="98.438349" y="138.14541" style="fill: #ef8a62; stroke: #000000; stroke-width: 0.4"/>
     <use xlink:href="#m06bca43c03" x="115.17933" y="138.65544" style="fill: #ef8a62; stroke: #000000; stroke-width: 0.4"/>
     <use xlink:href="#m06bca43c03" x="127.057246" y="138.912738" style="fill: #ef8a62; stroke: #000000; stroke-width: 0.4"/>
     <use xlink:href="#m06bca43c03" x="136.270473" y="139.067858" style="fill: #ef8a62; stroke: #000000; stroke-width: 0.4"/>
     <use xlink:href="#m06bca43c03" x="164.88937" y="139.379785" style="fill: #ef8a62; stroke: #000000; stroke-width: 0.4"/>
     <use xlink:href="#m06bca43c03" x="181.630352" y="139.484265" style="fill: #ef8a62; stroke: #000000; stroke-width: 0.4"/>
     <use xlink:href="#m06bca43c03" x="193.508267" y="139.5366" style="fill: #ef8a62; stroke: #000000; stroke-width: 0.4"/>
     <use xlink:href="#m06bca43c03" x="202.721494" y="139.568032" style="fill: #ef8a62; stroke: #000000; stroke-width: 0.4"/>
     <use xlink:href="#m06bca43c03" x="210.249249" y="139.588999" style="fill: #ef8a62; stroke: #000000; stroke-width: 0.4"/>
     <use xlink:href="#m06bca43c03" x="216.613875" y="139.603982" style="fill: #ef8a62; stroke: #000000; stroke-width: 0.4"/>
     <use xlink:href="#m06bca43c03" x="222.127164" y="139.615222" style="fill: #ef8a62; stroke: #000000; stroke-width: 0.4"/>
     <use xlink:href="#m06bca43c03" x="226.99023" y="139.623967" style="fill: #ef8a62; stroke: #000000; stroke-width: 0.4"/>
     <use xlink:href="#m06bca43c03" x="231.340391" y="139.630964" style="fill: #ef8a62; stroke: #000000; stroke-width: 0.4"/>
    </g>
   </g>
   <g id="patch_3">
    <path d="M 36.850394 212.598425 
L 36.850394 5.669291 
" style="fill: none; stroke: #000000; stroke-width: 0.6; stroke-linejoin: miter; stroke-linecap: square"/>
   </g>
   <g id="patch_4">
    <path d="M 235.275591 212.598425 
L 235.275591 5.669291 
" style="fill: none; stroke: #000000; stroke-width: 0.6; stroke-linejoin: miter; stroke-linecap: square"/>
   </g>
   <g id="patch_5">
    <path d="M 36.850394 212.598425 
L 235.275591 212.598425 
" style="fill: none; stroke: #000000; stroke-width: 0.6; stroke-linejoin: miter; stroke-linecap: square"/>
   </g>
   <g id="patch_6">
    <path d="M 36.850394 5.669291 
L 235.275591 5.669291 
" style="fill: none; stroke: #000000; stroke-width: 0.6; stroke-linejoin: miter; stroke-linecap: square"/>
   </g>
  </g>
  <g id="legend_1">
   <g id="patch_7">
    <path d="M 154.214035 36.448346 
L 229.716535 36.448346 
L 229.716535 11.228346 
L 154.214035 11.228346 
z
" style="fill: #ffffff; stroke: #000000; stroke-width: 0.5; stroke-linejoin: miter"/>
   </g>
   <g id="PathCollection_3">
    <defs>
     <path id="m1883853613" d="M 0 2.598076 
C 0.689018 2.598076 1.349908 2.324327 1.837117 1.837117 
C 2.324327 1.349908 2.598076 0.689018 2.598076 0 
C 2.598076 -0.689018 2.324327 -1.349908 1.837117 -1.837117 
C 1.349908 -2.324327 0.689018 -2.598076 0 -2.598076 
C -0.689018 -2.598076 -1.349908 -2.324327 -1.837117 -1.837117 
C -2.324327 -1.349908 -2.598076 -0.689018 -2.598076 0 
C -2.598076 0.689018 -2.324327 1.349908 -1.837117 1.837117 
C -1.349908 2.324327 -0.689018 2.598076 0 2.598076 
z
" style="stroke: #000000; stroke-width: 0.4"/>
    </defs>
    <g>
     <use xlink:href="#m1883853613" x="161.414035" y="18.054596" style="fill: #67a9cf; stroke: #000000; stroke-width: 0.4"/>
    </g>
   </g>
   <g id="text_9">
    <!-- Homogeneous -->
    <g transform="translate(171.814035 20.154596)scale(0.08 -0.08)">
     <defs>
      <path id="ArialMT-48" d="M 513 0 
L 513 4581 
L 1119 4581 
L 1119 2700 
L 3500 2700 
L 3500 4581 
L 4106 4581 
L 4106 0 
L 3500 0 
L 3500 2159 
L 1119 2159 
L 1119 0 
L 513 0 
z
" transform="scale(0.015625)"/>
      <path id="ArialMT-6f" d="M 213 1659 
Q 213 2581 725 3025 
Q 1153 3394 1769 3394 
Q 2453 3394 2887 2945 
Q 3322 2497 3322 1706 
Q 3322 1066 3130 698 
Q 2938 331 2570 128 
Q 2203 -75 1769 -75 
Q 1072 -75 642 372 
Q 213 819 213 1659 
z
M 791 1659 
Q 791 1022 1069 705 
Q 1347 388 1769 388 
Q 2188 388 2466 706 
Q 2744 1025 2744 1678 
Q 2744 2294 2464 2611 
Q 2184 2928 1769 2928 
Q 1347 2928 1069 2612 
Q 791 2297 791 1659 
z
" transform="scale(0.015625)"/>
      <path id="ArialMT-73" d="M 197 991 
L 753 1078 
Q 800 744 1014 566 
Q 1228 388 1613 388 
Q 2000 388 2187 545 
Q 2375 703 2375 916 
Q 2375 1106 2209 1216 
Q 2094 1291 1634 1406 
Q 1016 1563 777 1677 
Q 538 1791 414 1992 
Q 291 2194 291 2438 
Q 291 2659 392 2848 
Q 494 3038 669 3163 
Q 800 3259 1026 3326 
Q 1253 3394 1513 3394 
Q 1903 3394 2198 3281 
Q 2494 3169 2634 2976 
Q 2775 2784 2828 2463 
L 2278 2388 
Q 2241 2644 2061 2787 
Q 1881 2931 1553 2931 
Q 1166 2931 1000 2803 
Q 834 2675 834 2503 
Q 834 2394 903 2306 
Q 972 2216 1119 2156 
Q 1203 2125 1616 2013 
Q 2213 1853 2448 1751 
Q 2684 1650 2818 1456 
Q 2953 1263 2953 975 
Q 2953 694 2789 445 
Q 2625 197 2315 61 
Q 2006 -75 1616 -75 
Q 969 -75 630 194 
Q 291 463 197 991 
z
" transform="scale(0.015625)"/>
     </defs>
     <use xlink:href="#ArialMT-48"/>
     <use xlink:href="#ArialMT-6f" x="72.216797"/>
     <use xlink:href="#ArialMT-6d" x="127.832031"/>
     <use xlink:href="#ArialMT-6f" x="211.132812"/>
     <use xlink:href="#ArialMT-67" x="266.748047"/>
     <use xlink:href="#ArialMT-65" x="322.363281"/>
     <use xlink:href="#ArialMT-6e" x="377.978516"/>
     <use xlink:href="#ArialMT-65" x="433.59375"/>
     <use xlink:href="#ArialMT-6f" x="489.208984"/>
     <use xlink:href="#ArialMT-75" x="544.824219"/>
     <use xlink:href="#ArialMT-73" x="600.439453"/>
    </g>
   </g>
   <g id="PathCollection_4">
    <defs>
     <path id="mbf657ba549" d="M 0 2.598076 
C 0.689018 2.598076 1.349908 2.324327 1.837117 1.837117 
C 2.324327 1.349908 2.598076 0.689018 2.598076 0 
C 2.598076 -0.689018 2.324327 -1.349908 1.837117 -1.837117 
C 1.349908 -2.324327 0.689018 -2.598076 0 -2.598076 
C -0.689018 -2.598076 -1.349908 -2.324327 -1.837117 -1.837117 
C -2.324327 -1.349908 -2.598076 -0.689018 -2.598076 0 
C -2.598076 0.689018 -2.324327 1.349908 -1.837117 1.837117 
C -1.349908 2.324327 -0.689018 2.598076 0 2.598076 
z
" style="stroke: #000000; stroke-width: 0.4"/>
    </defs>
    <g>
     <use xlink:href="#mbf657ba549" x="161.414035" y="29.464596" style="fill: #ef8a62; stroke: #000000; stroke-width: 0.4"/>
    </g>
   </g>
   <g id="text_10">
    <!-- Heterogeneous -->
    <g transform="translate(171.814035 31.564596)scale(0.08 -0.08)">
     <defs>
      <path id="ArialMT-74" d="M 1650 503 
L 1731 6 
Q 1494 -44 1306 -44 
Q 1000 -44 831 53 
Q 663 150 594 308 
Q 525 466 525 972 
L 525 2881 
L 113 2881 
L 113 3319 
L 525 3319 
L 525 4141 
L 1084 4478 
L 1084 3319 
L 1650 3319 
L 1650 2881 
L 1084 2881 
L 1084 941 
Q 1084 700 1114 631 
Q 1144 563 1211 522 
Q 1278 481 1403 481 
Q 1497 481 1650 503 
z
" transform="scale(0.015625)"/>
     </defs>
     <use xlink:href="#ArialMT-48"/>
     <use xlink:href="#ArialMT-65" x="72.216797"/>
     <use xlink:href="#ArialMT-74" x="127.832031"/>
     <use xlink:href="#ArialMT-65" x="155.615234"/>
     <use xlink:href="#ArialMT-72" x="211.230469"/>
     <use xlink:href="#ArialMT-6f" x="244.53125"/>
     <use xlink:href="#ArialMT-67" x="300.146484"/>
     <use xlink:href="#ArialMT-65" x="355.761719"/>
     <use xlink:href="#ArialMT-6e" x="411.376953"/>
     <use xlink:href="#ArialMT-65" x="466.992188"/>
     <use xlink:href="#ArialMT-6f" x="522.607422"/>
     <use xlink:href="#ArialMT-75" x="578.222656"/>
     <use xlink:href="#ArialMT-73" x="633.837891"/>
    </g>
   </g>
  </g>
 </g>
 <defs>
  <clipPath id="pee50798c72">
   <rect x="36.850394" y="5.669291" width="198.425197" height="206.929134"/>
  </clipPath>
 </defs>
</svg>
